<svg width="14" height="13" viewBox="0 0 14 13" fill="none" xmlns="http://www.w3.org/2000/svg">
<path d="M8.6333 7.58312H8.37663C8.28009 7.58328 8.19373 7.52735 8.16057 7.44314C8.1321 7.37381 8.10153 7.30599 8.06863 7.23882C8.02774 7.15714 8.04641 7.06042 8.1153 6.99701L8.29823 6.82692C8.5698 6.57252 8.56931 6.16225 8.29707 5.90844L7.63767 5.29612C7.364 5.04348 6.92201 5.04348 6.64834 5.29612L6.46541 5.46578C6.39698 5.52951 6.293 5.54681 6.20501 5.50911C6.13268 5.47856 6.05964 5.45018 5.98474 5.42244C5.8936 5.39187 5.83296 5.31137 5.83331 5.22137V4.98303C5.83331 4.62403 5.51992 4.33301 5.13331 4.33301H4.19998C3.81338 4.33301 3.49999 4.62403 3.49999 4.98303V5.22137C3.50016 5.31102 3.43993 5.39122 3.34925 5.42201C3.27459 5.44844 3.20155 5.47683 3.12922 5.50738C3.04123 5.54516 2.93722 5.52786 2.86882 5.46405L2.68566 5.29417C2.41202 5.04169 1.9702 5.04169 1.69656 5.29417L1.03716 5.90844C0.765097 6.16258 0.765097 6.57301 1.03716 6.82714L1.21986 6.99701C1.28875 7.06042 1.30742 7.15714 1.26653 7.23882C1.23363 7.30599 1.20306 7.37381 1.17436 7.44336C1.14097 7.52805 1.05379 7.58404 0.956663 7.58312H0.699997C0.313395 7.58312 0 7.87414 0 8.23314V9.09983C0 9.45884 0.313395 9.74986 0.699997 9.74986H0.956663C1.0532 9.74969 1.13957 9.80562 1.17273 9.88983C1.2012 9.95916 1.23176 10.027 1.26466 10.0942C1.30555 10.1758 1.28689 10.2726 1.218 10.336L1.03506 10.506C0.763172 10.7602 0.763172 11.1704 1.03506 11.4245L1.69446 12.0368C1.96813 12.2895 2.41012 12.2895 2.68379 12.0368L2.86672 11.8672C2.93515 11.8035 3.03913 11.7862 3.12712 11.8239C3.19945 11.8544 3.27249 11.8828 3.34739 11.9105C3.439 11.9408 3.50016 12.0213 3.49999 12.1116V12.3499C3.49999 12.7089 3.81338 13 4.19998 13H5.13331C5.51992 13 5.83331 12.7089 5.83331 12.3499V12.1116C5.83313 12.022 5.89336 11.9418 5.98404 11.911C6.05871 11.8845 6.13174 11.8561 6.20408 11.8256C6.29207 11.7878 6.39608 11.8051 6.46447 11.8689L6.64764 12.0388C6.92166 12.2909 7.36336 12.2904 7.63674 12.0377L8.29613 11.4254C8.5682 11.1713 8.5682 10.7608 8.29613 10.5067L8.11343 10.3368C8.04454 10.2734 8.02588 10.1767 8.06677 10.095C8.09967 10.0278 8.13023 9.96003 8.1601 9.89048C8.19303 9.80584 8.27971 9.74953 8.37663 9.74986H8.6333C9.0199 9.74986 9.3333 9.45884 9.3333 9.09983V8.23314C9.3333 7.87414 9.0199 7.58312 8.6333 7.58312ZM8.86663 9.09983C8.86663 9.21949 8.76216 9.31651 8.6333 9.31651H8.37663C8.08657 9.31751 7.82699 9.484 7.7233 9.73555C7.69857 9.79622 7.67182 9.85594 7.64304 9.91474C7.52307 10.1607 7.57872 10.4498 7.78304 10.6419L7.9655 10.8116C8.05668 10.8961 8.05676 11.0333 7.96568 11.118C7.96562 11.118 7.96556 11.1181 7.9655 11.1182L7.3061 11.7305C7.21499 11.8151 7.06729 11.8151 6.97617 11.7305L6.79324 11.5608C6.58648 11.3709 6.27498 11.3192 6.01018 11.4308C5.94694 11.4575 5.88254 11.4824 5.81768 11.5053C5.54698 11.6016 5.36781 11.8424 5.36665 12.1116V12.3499C5.36665 12.4696 5.26217 12.5666 5.13331 12.5666H4.19998C4.07113 12.5666 3.96665 12.4696 3.96665 12.3499V12.1116C3.96557 11.8422 3.78628 11.6012 3.51539 11.5049C3.45005 11.4819 3.38574 11.4571 3.32242 11.4304C3.05759 11.319 2.74623 11.3707 2.53936 11.5604L2.35666 11.7298C2.2656 11.8145 2.11784 11.8146 2.02667 11.73C2.02661 11.7299 2.02655 11.7299 2.02649 11.7298L1.36709 11.1182C1.27601 11.0335 1.27601 10.8964 1.36709 10.8118L1.54979 10.6419C1.75411 10.4498 1.80976 10.1607 1.68979 9.91474C1.66109 9.85603 1.63426 9.79622 1.60953 9.73599C1.5061 9.48435 1.24669 9.3177 0.956663 9.31651H0.699997C0.571139 9.31651 0.466665 9.21949 0.466665 9.09983V8.23314C0.466665 8.11348 0.571139 8.01646 0.699997 8.01646H0.956663C1.24672 8.01546 1.50631 7.84898 1.60999 7.59742C1.63473 7.53675 1.66147 7.47703 1.69026 7.41823C1.81022 7.1723 1.75454 6.88315 1.55026 6.69107L1.36686 6.52141C1.27569 6.43686 1.2756 6.29965 1.36669 6.21498C1.36674 6.21493 1.3668 6.21487 1.36686 6.21482L2.02626 5.6025C2.11737 5.51792 2.26507 5.51792 2.35619 5.6025L2.53912 5.77216C2.74588 5.96204 3.05738 6.01375 3.32219 5.90216C3.38542 5.87551 3.44982 5.85059 3.51469 5.82762C3.78576 5.73167 3.96534 5.49075 3.96665 5.22137V4.98303C3.96665 4.86337 4.07113 4.76636 4.19998 4.76636H5.13331C5.26217 4.76636 5.36665 4.86337 5.36665 4.98303V5.22137C5.36772 5.49072 5.54701 5.73177 5.81791 5.82806C5.88324 5.85103 5.94756 5.87586 6.01088 5.90259C6.27568 6.01418 6.58718 5.96248 6.79394 5.77259L6.97664 5.60315C7.0681 5.51913 7.21534 5.51913 7.3068 5.60315L7.9662 6.21547C8.05729 6.30008 8.05729 6.43724 7.9662 6.52185L7.7835 6.69172C7.57922 6.8838 7.52354 7.17295 7.6435 7.41888C7.6722 7.4776 7.69904 7.5374 7.72377 7.59763C7.82743 7.849 8.08678 8.01538 8.37663 8.01646H8.6333C8.76216 8.01646 8.86663 8.11348 8.86663 8.23314V9.09983V9.09983Z" fill="black"/>
<path d="M6.76244 8.58019C6.76011 8.52819 6.75615 8.47641 6.74938 8.42484C6.74191 8.36937 6.73305 8.31433 6.72068 8.26038C6.71251 8.22506 6.70178 8.19018 6.69151 8.15508C6.67845 8.11044 6.66375 8.06646 6.64741 8.02312C6.63598 7.99301 6.62408 7.96311 6.61195 7.93342C6.5819 7.86403 6.54755 7.79629 6.50905 7.73061C6.50601 7.72563 6.50415 7.72021 6.50111 7.71523C6.44042 7.61491 6.37013 7.51982 6.29111 7.43117C6.28435 7.42337 6.27665 7.416 6.26965 7.40842C6.23745 7.3731 6.20431 7.33887 6.16955 7.30615C6.15135 7.2886 6.13221 7.27213 6.11308 7.25523C6.08975 7.23508 6.06641 7.21515 6.04308 7.19608C6.01476 7.17325 5.98591 7.15115 5.95651 7.12978L5.91825 7.10334C5.5572 6.85222 5.11821 6.71658 4.66712 6.7168C4.64379 6.7168 4.62045 6.72005 4.59712 6.72091C4.54742 6.72221 4.49749 6.72481 4.44732 6.72958C4.42095 6.73218 4.39435 6.735 4.36799 6.73846C4.29192 6.74775 4.21644 6.76086 4.14189 6.77768C3.01836 7.04728 2.34292 8.11163 2.63325 9.15495C2.82458 9.84245 3.40301 10.3792 4.14352 10.5563C4.14726 10.5563 4.15122 10.5573 4.15519 10.5582C4.23578 10.5769 4.31741 10.5914 4.39972 10.6015C4.45409 10.6078 4.50845 10.6091 4.56305 10.6115C4.59945 10.6132 4.63305 10.6182 4.67109 10.6182C4.73759 10.6182 4.80665 10.6141 4.87712 10.6076C4.88459 10.6076 4.89205 10.6057 4.90045 10.6048C4.95715 10.5989 5.01455 10.5911 5.07312 10.5803C5.09645 10.5762 5.11815 10.5708 5.14055 10.566C5.18162 10.5571 5.22245 10.5478 5.26445 10.5363C5.29712 10.5272 5.32885 10.5166 5.36082 10.5062C5.39278 10.4958 5.42592 10.4845 5.45905 10.4728C5.49218 10.4611 5.51995 10.4477 5.55005 10.4347C5.58925 10.418 5.62822 10.4016 5.66672 10.3821H5.66812C5.88587 10.2738 6.08701 10.1389 6.26615 9.98099C6.31453 9.93906 6.35662 9.89123 6.39121 9.83885C6.57333 9.56774 6.69297 9.26453 6.74261 8.94832C6.74915 8.9065 6.75498 8.86468 6.75848 8.822C6.76174 8.78278 6.76408 8.74378 6.76501 8.70478C6.76501 8.69243 6.76688 8.68073 6.76688 8.66838C6.76711 8.63783 6.76384 8.60966 6.76244 8.58019ZM6.29741 8.72211C6.29741 8.7401 6.29578 8.75808 6.29461 8.77585C6.29041 8.82828 6.28318 8.88072 6.27361 8.93337C6.18641 9.38386 5.8852 9.77388 5.45368 9.99507C5.42475 10.0092 5.39628 10.0224 5.36782 10.0345L5.34845 10.0432C5.21288 10.1003 5.06979 10.1405 4.92285 10.1628C4.91259 10.1643 4.90209 10.166 4.89159 10.1673C4.86242 10.1712 4.83372 10.1745 4.80525 10.1769C4.76769 10.1799 4.72989 10.1816 4.69139 10.1823C4.67505 10.1823 4.65895 10.1823 4.64262 10.1823C4.58741 10.1817 4.53228 10.1785 4.47742 10.1727L4.44942 10.1697C4.38525 10.1619 4.32161 10.1508 4.25879 10.1363C3.3849 9.92863 2.8578 9.1024 3.08145 8.29091C3.22924 7.75469 3.67986 7.33581 4.25715 7.19803V7.19781C4.3912 7.16642 4.52887 7.15039 4.66712 7.15014C4.73382 7.1505 4.80047 7.15469 4.86662 7.16271C4.88435 7.16466 4.90185 7.1677 4.91935 7.17008C4.96975 7.17745 5.01969 7.18676 5.06892 7.19846C5.08502 7.20236 5.10112 7.20583 5.11698 7.20995C5.24106 7.24321 5.3605 7.2899 5.47282 7.34905C5.49078 7.3588 5.50828 7.36899 5.52602 7.37917C5.56288 7.40084 5.59858 7.4225 5.63382 7.4472C5.65272 7.45999 5.67185 7.47256 5.69005 7.48621C5.73584 7.52017 5.77968 7.55633 5.82142 7.59454C5.83798 7.61014 5.85315 7.62726 5.86925 7.64351C5.89608 7.6706 5.92222 7.69833 5.94718 7.72758C5.96445 7.74773 5.98101 7.76853 5.99735 7.78955C6.02068 7.82075 6.04401 7.85325 6.06501 7.88619C6.07668 7.90417 6.08835 7.92172 6.10025 7.94014C6.13035 7.99157 6.15715 8.0446 6.18051 8.09896C6.18985 8.12063 6.19778 8.14229 6.20618 8.16396C6.22135 8.20383 6.23441 8.24413 6.24585 8.28487C6.25168 8.30653 6.25821 8.32582 6.26311 8.34683C6.27673 8.40539 6.28662 8.46465 6.29275 8.52429C6.29415 8.54011 6.29415 8.55614 6.29531 8.57196C6.29858 8.62179 6.29951 8.67185 6.29741 8.72211Z" fill="black"/>
<path d="M13.3002 4.55015H12.5664C12.4686 4.55107 12.381 4.49384 12.349 4.40801C12.2766 4.20675 12.189 4.01044 12.0869 3.82061C12.0436 3.73863 12.0616 3.64007 12.1317 3.57599L12.652 3.09215C12.9252 2.83835 12.9252 2.42705 12.652 2.17324L11.6599 1.25346C11.3866 0.999842 10.9437 0.999842 10.6704 1.25346L10.1503 1.73621C10.0813 1.80126 9.97535 1.81811 9.88706 1.77803C9.6826 1.68272 9.47115 1.60098 9.25426 1.5334C9.16146 1.50391 9.09939 1.42255 9.10026 1.33146V0.650022C9.10026 0.29102 8.78687 0 8.40027 0H7.00027C6.61367 0 6.30028 0.29102 6.30028 0.650022V1.33146C6.30127 1.42233 6.23967 1.50361 6.14721 1.5334C5.93044 1.60095 5.71904 1.68264 5.51464 1.77781C5.42636 1.81819 5.32016 1.80143 5.25121 1.73621L4.73018 1.25303C4.45654 1.00014 4.01426 1.00014 3.74062 1.25303L2.75036 2.17259C2.47709 2.42642 2.47709 2.83789 2.75036 3.09172L3.51545 3.80349C3.608 3.88675 3.75573 3.88458 3.84538 3.79862C3.93286 3.71477 3.93306 3.58162 3.84585 3.49755L3.08029 2.78599C2.9892 2.70138 2.9892 2.56423 3.08029 2.47962L4.07055 1.56005C4.16167 1.47547 4.30937 1.47547 4.40048 1.56005L4.92175 2.04323C5.13265 2.24025 5.45582 2.28948 5.72348 2.16544C5.90831 2.0795 6.09941 2.00572 6.29538 1.94465C6.57823 1.85573 6.76816 1.60878 6.76694 1.33146V0.650022C6.76694 0.530364 6.87141 0.433348 7.00027 0.433348H8.40027C8.52912 0.433348 8.6336 0.530364 8.6336 0.650022V1.33146C8.6324 1.60872 8.82234 1.8556 9.10516 1.94443C9.30122 2.00553 9.49241 2.07937 9.67729 2.16544C9.94501 2.28883 10.2677 2.23954 10.4788 2.04302L11.0001 1.56005C11.0912 1.47547 11.2389 1.47547 11.33 1.56005L12.3202 2.47983C12.4112 2.56442 12.4112 2.70141 12.3202 2.78599L11.7999 3.27004C11.588 3.466 11.535 3.76595 11.6683 4.01453C11.7609 4.18617 11.8403 4.36362 11.9061 4.5456C12.0018 4.80832 12.2678 4.98469 12.5664 4.9835H13.3002C13.4291 4.9835 13.5336 5.08052 13.5336 5.20017V6.50022C13.5336 6.61988 13.4291 6.71689 13.3002 6.71689H12.5664C12.2678 6.71578 12.002 6.89215 11.9063 7.15479C11.8405 7.33685 11.761 7.51439 11.6683 7.68607C11.5352 7.93465 11.5883 8.23445 11.8002 8.43035L12.3205 8.9144C12.4116 8.99901 12.4116 9.13616 12.3205 9.22077L11.3298 10.1403C11.2387 10.2248 11.0911 10.2248 11.0001 10.1403L10.2333 9.42986C10.1437 9.3439 9.99594 9.34173 9.90339 9.42499C9.81082 9.50825 9.80849 9.64543 9.89814 9.73137C9.90001 9.73315 9.90194 9.73494 9.90386 9.73667L10.6704 10.4471C10.9437 10.7008 11.3866 10.7008 11.6599 10.4471L12.6502 9.5278C12.9234 9.27397 12.9234 8.8625 12.6502 8.60867L12.1306 8.12527C12.0606 8.06124 12.0424 7.96285 12.0855 7.88086C12.1882 7.691 12.2762 7.49464 12.349 7.29324C12.3807 7.20706 12.4683 7.14943 12.5664 7.15024H13.3002C13.6868 7.15024 14.0002 6.85922 14.0002 6.50022V5.20017C14.0002 4.84117 13.6868 4.55015 13.3002 4.55015Z" fill="black"/>
<path d="M9.84482 3.85843C8.65955 2.76008 6.74051 2.76008 5.55524 3.85843C5.46572 3.9445 5.46829 4.08168 5.56098 4.16481C5.6514 4.2459 5.79475 4.2459 5.88517 4.16481C6.88077 3.2278 8.50584 3.2177 9.51489 4.14222C10.5239 5.06674 10.5348 6.57579 9.53921 7.5128C9.53116 7.52038 9.52305 7.52791 9.51489 7.53538C9.42219 7.61853 9.41963 7.75569 9.50917 7.84176C9.59871 7.92784 9.74641 7.93022 9.8391 7.84707C9.84103 7.84534 9.84295 7.84355 9.84482 7.84176C11.0276 6.74111 11.0276 4.95908 9.84482 3.85843Z" fill="black"/>
</svg>
