<svg width="28" height="21" viewBox="0 0 28 21" fill="none" xmlns="http://www.w3.org/2000/svg">
<path d="M25.375 0H2.62502C1.17749 0 0 1.17749 0 2.62501V18.375C0 19.8225 1.17749 21 2.62502 21H25.375C26.8225 21 28 19.8225 28 18.375V2.62501C28 1.17749 26.8225 0 25.375 0V0ZM25.375 1.74999C25.4939 1.74999 25.607 1.77466 25.7104 1.81773L14 11.9672L2.28958 1.81773C2.39298 1.77471 2.50608 1.74999 2.62496 1.74999H25.375ZM25.375 19.25H2.62502C2.14224 19.25 1.74999 18.8578 1.74999 18.3749V3.66662L13.4266 13.7864C13.5916 13.929 13.7958 14 14 14C14.2042 14 14.4084 13.9291 14.5734 13.7864L26.25 3.66662V18.375C26.2499 18.8578 25.8578 19.25 25.375 19.25V19.25Z" fill="#C53030"/>
</svg>
