<svg width="14" height="14" viewBox="0 0 14 14" fill="none" xmlns="http://www.w3.org/2000/svg">
<path d="M3.05615 7.68048V13.3794C3.05615 13.7192 3.28711 13.9935 3.57277 13.9935C3.85795 13.9935 4.08939 13.7192 4.08939 13.3794V7.68048C4.08939 7.34139 3.85795 7.06641 3.57277 7.06641C3.28711 7.06641 3.05615 7.3411 3.05615 7.68048Z" fill="black"/>
<path d="M1.43494 14H2.57248V7.23388C2.5756 7.20145 2.58057 7.16908 2.58057 7.13584C2.58057 4.21677 4.56277 1.84223 6.9989 1.84223C9.43474 1.84223 11.4169 4.21677 11.4169 7.13584C11.4169 7.18049 11.4225 7.22374 11.4281 7.26688V14H12.5657C13.3576 14 14 13.2102 14 12.2357V8.70725C14 7.90366 13.5621 7.22664 12.9643 7.01361C12.9093 3.13569 10.2553 0 6.99915 0C3.74208 0 1.08775 3.13598 1.03329 7.01511C0.43629 7.22843 0 7.90487 0 8.70783V12.2357C0 13.2096 0.642402 14 1.43494 14Z" fill="black"/>
<path d="M9.91113 7.68048V13.3794C9.91113 13.7192 10.1424 13.9935 10.4277 13.9935C10.713 13.9935 10.9443 13.7192 10.9443 13.3794V7.68048C10.9443 7.34139 10.713 7.06641 10.4277 7.06641C10.1419 7.06641 9.91113 7.3411 9.91113 7.68048Z" fill="black"/>
</svg>
