<svg width="19" height="28" viewBox="0 0 19 28" fill="none" xmlns="http://www.w3.org/2000/svg">
<path d="M9.5 0C4.2617 0 0 4.2617 0 9.5C0 11.2699 0.490253 12.9971 1.41809 14.4955L8.95924 26.648C9.10369 26.8808 9.35819 27.0222 9.63189 27.0222C9.634 27.0222 9.63606 27.0222 9.63817 27.0222C9.91425 27.0201 10.1693 26.8742 10.3111 26.6374L17.66 14.3672C18.5367 12.9004 19 11.2173 19 9.5C19 4.2617 14.7383 0 9.5 0ZM16.3013 13.5543L9.61991 24.7098L2.76381 13.6613C1.99152 12.4141 1.57278 10.9751 1.57278 9.5C1.57278 5.13475 5.13475 1.57278 9.5 1.57278C13.8653 1.57278 17.4219 5.13475 17.4219 9.5C17.4219 10.9314 17.0308 12.3335 16.3013 13.5543Z" fill="#C53030"/>
<path d="M9.5 4.75C6.88085 4.75 4.75 6.88085 4.75 9.5C4.75 12.1024 6.84617 14.25 9.5 14.25C12.1865 14.25 14.25 12.0738 14.25 9.5C14.25 6.88085 12.1192 4.75 9.5 4.75ZM9.5 12.6772C7.74477 12.6772 6.32278 11.2505 6.32278 9.5C6.32278 7.7539 7.7539 6.32278 9.5 6.32278C11.2461 6.32278 12.6719 7.7539 12.6719 9.5C12.6719 11.2249 11.283 12.6772 9.5 12.6772Z" fill="#C53030"/>
</svg>
