<svg width="11" height="20" viewBox="0 0 11 20" fill="none" xmlns="http://www.w3.org/2000/svg">
<path d="M9.58577 0H1.41301C0.631409 0 0 0.652675 0 1.45747V18.5444C0 19.3467 0.631409 20 1.41301 20H9.58577C10.3661 20 11 19.3473 11 18.5444V1.45747C10.9994 0.652675 10.3661 0 9.58577 0ZM9.94009 16.2045H1.05991V2.45858H9.94009V16.2045ZM7.39423 1.47893H3.60516V1.0535H7.39484L7.39423 1.47893ZM9.01566 1.28452C9.01566 1.4903 8.8526 1.65694 8.65337 1.65694C8.45352 1.65694 8.29107 1.48966 8.29107 1.28452C8.29107 1.07938 8.45352 0.912104 8.65337 0.912104C8.85321 0.911472 9.01566 1.07874 9.01566 1.28452ZM7.22442 18.4472H3.77374V17.354H7.22442V18.4472Z" fill="black"/>
</svg>
