<svg width="24" height="23" viewBox="0 0 24 23" fill="none" xmlns="http://www.w3.org/2000/svg">
<path d="M22.3981 17.7437L17.7424 14.639C17.1516 14.2481 16.3597 14.3767 15.9229 14.9345L14.5668 16.6781C14.3925 16.9079 14.0757 16.9746 13.8235 16.8345L13.5656 16.6923C12.7104 16.2262 11.6464 15.6459 9.50257 13.5013C7.35874 11.3567 6.77728 10.2919 6.31116 9.4383L6.16971 9.18034C6.02772 8.92826 6.09312 8.6101 6.32302 8.43442L8.06549 7.07869C8.62302 6.64186 8.7518 5.85013 8.36141 5.25914L5.25665 0.603526C4.85656 0.00170956 4.05387 -0.178952 3.43449 0.193376L1.48768 1.36283C0.875984 1.72244 0.427205 2.30486 0.235448 2.98802C-0.465594 5.54235 0.061793 9.95073 6.55574 16.4454C11.7215 21.6108 15.5672 22.9999 18.2105 22.9999C18.8188 23.0025 19.4248 22.9234 20.012 22.7646C20.6953 22.5731 21.2778 22.1243 21.6372 21.5124L22.8078 19.5667C23.1807 18.9472 23.0001 18.144 22.3981 17.7437ZM22.1474 19.1734L20.9794 21.1202C20.7214 21.5619 20.3024 21.8866 19.8104 22.0264C17.4523 22.6738 13.3325 22.1375 7.09808 15.9031C0.863632 9.66865 0.327441 5.54927 0.97485 3.19083C1.11482 2.69816 1.43994 2.27867 1.88211 2.02021L3.82892 0.852285C4.09767 0.690578 4.44606 0.768961 4.61966 1.03012L6.30622 3.56221L7.72178 5.68533C7.8913 5.94167 7.8356 6.28526 7.59376 6.47495L5.85088 7.83067C5.32048 8.23624 5.16902 8.97007 5.49557 9.55249L5.63397 9.80394C6.12385 10.7024 6.7329 11.8201 8.95645 14.0433C11.18 16.2664 12.2973 16.8755 13.1954 17.3654L13.4472 17.5041C14.0296 17.8306 14.7635 17.6792 15.169 17.1488L16.5248 15.4059C16.7145 15.1642 17.0579 15.1086 17.3144 15.2779L21.9696 18.3827C22.2309 18.5562 22.3093 18.9047 22.1474 19.1734Z" fill="#C53030"/>
<path d="M13.0337 3.83469C16.6308 3.83869 19.5458 6.75376 19.5499 10.3509C19.5499 10.5626 19.7214 10.7342 19.9331 10.7342C20.1448 10.7342 20.3164 10.5626 20.3164 10.3509C20.312 6.33054 17.054 3.07252 13.0337 3.06812C12.822 3.06812 12.6504 3.2397 12.6504 3.4514C12.6504 3.6631 12.822 3.83469 13.0337 3.83469Z" fill="#C53030"/>
<path d="M13.0337 6.1345C15.3612 6.13724 17.2473 8.02336 17.25 10.3509C17.25 10.5626 17.4217 10.7341 17.6333 10.7341C17.845 10.7341 18.0166 10.5626 18.0166 10.3509C18.0134 7.60014 15.7843 5.37106 13.0337 5.36792C12.822 5.36792 12.6504 5.53951 12.6504 5.75121C12.6504 5.96291 12.822 6.1345 13.0337 6.1345Z" fill="#C53030"/>
<path d="M13.0337 8.4343C14.0916 8.43556 14.9489 9.29287 14.9502 10.3508C14.9502 10.5625 15.1218 10.7341 15.3335 10.7341C15.5452 10.7341 15.7168 10.5625 15.7168 10.3508C15.7151 8.8697 14.5148 7.66939 13.0337 7.66772C12.822 7.66772 12.6504 7.83931 12.6504 8.05101C12.6504 8.26271 12.822 8.4343 13.0337 8.4343Z" fill="#C53030"/>
</svg>
