<svg width="12" height="17" viewBox="0 0 12 17" fill="none" xmlns="http://www.w3.org/2000/svg">
<path d="M0.26787 3.07524C0.415831 3.07524 0.53574 2.96351 0.53574 2.82572V0.748522C0.53574 0.61093 0.655898 0.499004 0.80361 0.499004H8.19461C8.34232 0.499004 8.46248 0.61093 8.46248 0.748522V8.00089C8.46248 8.13868 8.58239 8.25041 8.73035 8.25041C8.87831 8.25041 8.99822 8.13868 8.99822 8.00089V0.748522C8.99815 0.335779 8.63767 0 8.19461 0H0.803574C0.360511 0 0 0.335779 0 0.748522V2.82572C0 2.96351 0.119909 3.07524 0.26787 3.07524V3.07524Z" fill="black"/>
<path d="M11.7322 1.62169H11.6643V0.832526C11.6643 0.694735 11.5444 0.583008 11.3964 0.583008H10.3058C10.1578 0.583008 10.0379 0.694735 10.0379 0.832526V1.62169H9.97003C9.82207 1.62169 9.70216 1.73338 9.70216 1.87121V4.54462C9.70216 4.68241 9.82207 4.79414 9.97003 4.79414H10.1252V5.72548C10.1252 5.86327 10.2451 5.975 10.3931 5.975H10.5833V14.7891C10.5833 15.7331 9.75877 16.5012 8.74528 16.5012C7.7318 16.5012 6.9073 15.7331 6.9073 14.7891V14.6472H7.53215C7.68011 14.6472 7.80002 14.5355 7.80002 14.3977V12.9841H8.19461C8.63767 12.9841 8.99818 12.6483 8.99818 12.2356V8.9993C8.99818 8.86151 8.87827 8.74978 8.73031 8.74978C8.58235 8.74978 8.46244 8.86151 8.46244 8.9993V12.2356C8.46244 12.3732 8.34228 12.4851 8.19457 12.4851H0.80361C0.655898 12.4851 0.53574 12.3732 0.53574 12.2356V3.82409C0.53574 3.6863 0.415831 3.57457 0.26787 3.57457C0.119909 3.57457 0 3.6863 0 3.82409V12.2355C0 12.6483 0.360475 12.9841 0.803574 12.9841H5.47887V14.3976C5.47887 14.5354 5.59878 14.6471 5.74674 14.6471H6.37156V14.7891C6.37156 16.0083 7.43641 17.0001 8.74525 17.0001C10.0541 17.0001 11.1189 16.0083 11.1189 14.7891V5.97496H11.3091C11.457 5.97496 11.5769 5.86327 11.5769 5.72544V4.79411H11.7321C11.8801 4.79411 12 4.68238 12 4.54459V1.87117C12 1.73338 11.8801 1.62169 11.7322 1.62169V1.62169ZM6.01465 12.9841H7.26435V14.1481H6.01465V12.9841ZM11.4643 2.12069V4.2951H10.2379V2.12069H11.4643ZM10.5737 1.08201H11.1286V1.62166H10.5737V1.08201ZM11.0413 5.47593H10.661V4.79411H11.0413V5.47593Z" fill="black"/>
<path d="M4.96823 5.32338H4.51733L5.01582 4.59232C5.19561 4.30731 4.76392 4.05221 4.56359 4.32477L3.80375 5.43912C3.68912 5.59889 3.82364 5.82686 4.02985 5.82238H4.48075L3.98226 6.55344C3.80265 6.83759 4.23324 7.09405 4.43449 6.82099L5.19433 5.70664C5.30899 5.54687 5.17444 5.3189 4.96823 5.32338V5.32338Z" fill="black"/>
<path d="M4.49918 2.9917C2.97145 2.9917 1.72852 4.14948 1.72852 5.57258C1.72852 6.99565 2.97145 8.15343 4.49918 8.15343C6.02691 8.15343 7.26984 6.99565 7.26984 5.57258C7.26984 4.14948 6.02691 2.9917 4.49918 2.9917V2.9917ZM4.49918 7.65442C3.26683 7.65442 2.26422 6.7205 2.26422 5.57258C2.26422 4.42466 3.2668 3.49074 4.49918 3.49074C5.73156 3.49074 6.73413 4.42466 6.73413 5.57258C6.73413 6.7205 5.73156 7.65442 4.49918 7.65442V7.65442Z" fill="black"/>
<path d="M2.24834 10.7158C2.10038 10.7158 1.98047 10.8275 1.98047 10.9653C1.98047 11.1032 2.10038 11.2149 2.24834 11.2149H2.85576C3.00372 11.2149 3.12363 11.1031 3.12363 10.9653C3.12363 10.8275 3.00372 10.7158 2.85576 10.7158H2.24834Z" fill="black"/>
<path d="M4.19512 10.7158C4.04715 10.7158 3.92725 10.8275 3.92725 10.9653C3.92725 11.1032 4.04715 11.2149 4.19512 11.2149H4.80254C4.9505 11.2149 5.07041 11.1031 5.07041 10.9653C5.07041 10.8275 4.9505 10.7158 4.80254 10.7158H4.19512Z" fill="black"/>
<path d="M6.14238 10.7158C5.99442 10.7158 5.87451 10.8275 5.87451 10.9653C5.87451 11.1032 5.99442 11.2149 6.14238 11.2149H6.7498C6.89776 11.2149 7.01767 11.1031 7.01767 10.9653C7.01767 10.8275 6.89776 10.7158 6.7498 10.7158H6.14238Z" fill="black"/>
</svg>
